SplineFontDB: 3.2
FontName: mem-mono-3x3
FullName: mem monospaced 3x3
FamilyName: mem monospaced 3x3
Weight: Regular
Copyright: Copyright (c) 2020, 
Version: 6.0.0
ItalicAngle: 0
UnderlinePosition: -100
UnderlineWidth: 50
Ascent: 800
Descent: 533
InvalidEm: 0
LayerCount: 2
Layer: 0 0 "Back" 1
Layer: 1 0 "Fore" 0
OS2Version: 0
OS2_WeightWidthSlopeOnly: 0
OS2_UseTypoMetrics: 1
CreationTime: 0
ModificationTime: 0
OS2TypoAscent: 0
OS2TypoAOffset: 1
OS2TypoDescent: 0
OS2TypoDOffset: 1
OS2TypoLinegap: 0
OS2WinAscent: 0
OS2WinAOffset: 1
OS2WinDescent: 0
OS2WinDOffset: 1
HheadAscent: 0
HheadAOffset: 1
HheadDescent: 0
HheadDOffset: 1
OS2Vendor: 'PfEd'
Lookup: 258 0 0 "kern" { "kern-lut"  } ['kern' ('dflt' <'dflt' > ) ]
DEI: 91125
DesignSize: 40
Encoding: ISO8859-1
UnicodeInterp: none
NameList: AGL For New Fonts
DisplaySize: -48
AntiAlias: 1
FitToEm: 0
OnlyBitmaps: 1
BeginChars: 256 70

StartChar: ampersand
Encoding: 38 38 1
Width: 1333
VWidth: 0
Flags: W
LayerCount: 2
Fore
SplineSet
333.333007812 633.333007812 m 1
 333.333007812 800 l 1
 500 800 l 1
 666.666992188 800 l 1
 666.666992188 466.666992188 l 1
 666.666992188 133.333007812 l 1
 833.333007812 133.333007812 l 1
 1000 133.333007812 l 1
 1000 -33.3330078125 l 1
 1000 -200 l 1
 500 -200 l 1
 0 -200 l 1
 0 133.333007812 l 1
 0 466.666992188 l 1
 166.666992188 466.666992188 l 1
 333.333007812 466.666992188 l 1
 333.333007812 633.333007812 l 1
EndSplineSet
PairPos2: "kern-lut" uni0009 dx=0 dy=0 dh=-333 dv=0 dx=0 dy=0 dh=0 dv=0
PairPos2: "kern-lut" uni000A dx=0 dy=0 dh=-333 dv=0 dx=0 dy=0 dh=0 dv=0
EndChar

StartChar: parenleft
Encoding: 40 40 2
Width: 1333
VWidth: 0
Flags: W
LayerCount: 2
Fore
SplineSet
333.333007812 633.333007812 m 1
 333.333007812 800 l 1
 500 800 l 1
 666.666992188 800 l 1
 666.666992188 633.333007812 l 1
 666.666992188 466.666992188 l 1
 500 466.666992188 l 1
 333.333007812 466.666992188 l 1
 333.333007812 300 l 1
 333.333007812 133.333007812 l 1
 500 133.333007812 l 1
 666.666992188 133.333007812 l 1
 666.666992188 -33.3330078125 l 1
 666.666992188 -200 l 1
 500 -200 l 1
 333.333007812 -200 l 1
 333.333007812 -33.3330078125 l 1
 333.333007812 133.333007812 l 1
 166.666992188 133.333007812 l 1
 0 133.333007812 l 1
 0 300 l 1
 0 466.666992188 l 1
 166.666992188 466.666992188 l 1
 333.333007812 466.666992188 l 1
 333.333007812 633.333007812 l 1
EndSplineSet
PairPos2: "kern-lut" uni0009 dx=0 dy=0 dh=-333 dv=0 dx=0 dy=0 dh=0 dv=0
PairPos2: "kern-lut" uni000A dx=0 dy=0 dh=-333 dv=0 dx=0 dy=0 dh=0 dv=0
EndChar

StartChar: parenright
Encoding: 41 41 3
Width: 1333
VWidth: 0
Flags: W
LayerCount: 2
Fore
SplineSet
0 633.333007812 m 1
 0 800 l 1
 166.666992188 800 l 1
 333.333007812 800 l 1
 333.333007812 633.333007812 l 1
 333.333007812 466.666992188 l 1
 500 466.666992188 l 1
 666.666992188 466.666992188 l 1
 666.666992188 300 l 1
 666.666992188 133.333007812 l 1
 500 133.333007812 l 1
 333.333007812 133.333007812 l 1
 333.333007812 -33.3330078125 l 1
 333.333007812 -200 l 1
 166.666992188 -200 l 1
 0 -200 l 1
 0 -33.3330078125 l 1
 0 133.333007812 l 1
 166.666992188 133.333007812 l 1
 333.333007812 133.333007812 l 1
 333.333007812 300 l 1
 333.333007812 466.666992188 l 1
 166.666992188 466.666992188 l 1
 0 466.666992188 l 1
 0 633.333007812 l 1
EndSplineSet
PairPos2: "kern-lut" uni0009 dx=0 dy=0 dh=-333 dv=0 dx=0 dy=0 dh=0 dv=0
PairPos2: "kern-lut" uni000A dx=0 dy=0 dh=-333 dv=0 dx=0 dy=0 dh=0 dv=0
EndChar

StartChar: comma
Encoding: 44 44 4
Width: 1333
VWidth: 0
Flags: W
LayerCount: 2
Fore
SplineSet
333.333007812 300 m 1
 333.333007812 466.666992188 l 1
 500 466.666992188 l 1
 666.666992188 466.666992188 l 1
 666.666992188 300 l 1
 666.666992188 133.333007812 l 1
 500 133.333007812 l 1
 333.333007812 133.333007812 l 1
 333.333007812 -33.3330078125 l 1
 333.333007812 -200 l 1
 166.666992188 -200 l 1
 0 -200 l 1
 0 -33.3330078125 l 1
 0 133.333007812 l 1
 166.666992188 133.333007812 l 1
 333.333007812 133.333007812 l 1
 333.333007812 300 l 1
EndSplineSet
PairPos2: "kern-lut" uni0009 dx=0 dy=0 dh=-333 dv=0 dx=0 dy=0 dh=0 dv=0
PairPos2: "kern-lut" uni000A dx=0 dy=0 dh=-333 dv=0 dx=0 dy=0 dh=0 dv=0
EndChar

StartChar: period
Encoding: 46 46 5
Width: 1333
VWidth: 0
Flags: W
LayerCount: 2
Fore
SplineSet
0 -33.3330078125 m 1
 0 133.333007812 l 1
 166.666992188 133.333007812 l 1
 333.333007812 133.333007812 l 1
 333.333007812 -33.3330078125 l 1
 333.333007812 -200 l 1
 166.666992188 -200 l 1
 0 -200 l 1
 0 -33.3330078125 l 1
EndSplineSet
PairPos2: "kern-lut" uni0009 dx=0 dy=0 dh=-333 dv=0 dx=0 dy=0 dh=0 dv=0
PairPos2: "kern-lut" uni000A dx=0 dy=0 dh=-333 dv=0 dx=0 dy=0 dh=0 dv=0
EndChar

StartChar: zero
Encoding: 48 48 6
Width: 1333
VWidth: 0
Flags: W
LayerCount: 2
Fore
SplineSet
0 466.666992188 m 1
 0 800 l 1
 333.333007812 800 l 1
 666.666992188 800 l 1
 666.666992188 633.333007812 l 1
 666.666992188 466.666992188 l 1
 833.333007812 466.666992188 l 1
 1000 466.666992188 l 1
 1000 133.333007812 l 1
 1000 -200 l 1
 666.666992188 -200 l 1
 333.333007812 -200 l 1
 333.333007812 -33.3330078125 l 1
 333.333007812 133.333007812 l 1
 166.666992188 133.333007812 l 1
 0 133.333007812 l 1
 0 466.666992188 l 1
666.666992188 300 m 1
 666.666992188 466.666992188 l 1
 500 466.666992188 l 1
 333.333007812 466.666992188 l 1
 333.333007812 300 l 1
 333.333007812 133.333007812 l 1
 500 133.333007812 l 1
 666.666992188 133.333007812 l 1
 666.666992188 300 l 1
EndSplineSet
PairPos2: "kern-lut" uni0009 dx=0 dy=0 dh=-333 dv=0 dx=0 dy=0 dh=0 dv=0
PairPos2: "kern-lut" uni000A dx=0 dy=0 dh=-333 dv=0 dx=0 dy=0 dh=0 dv=0
EndChar

StartChar: one
Encoding: 49 49 7
Width: 1333
VWidth: 0
Flags: W
LayerCount: 2
Fore
SplineSet
333.333007812 633.333007812 m 1
 333.333007812 800 l 1
 500 800 l 1
 666.666992188 800 l 1
 666.666992188 300 l 1
 666.666992188 -200 l 1
 500 -200 l 1
 333.333007812 -200 l 1
 333.333007812 -33.3330078125 l 1
 333.333007812 133.333007812 l 1
 166.666992188 133.333007812 l 1
 0 133.333007812 l 1
 0 300 l 1
 0 466.666992188 l 1
 166.666992188 466.666992188 l 1
 333.333007812 466.666992188 l 1
 333.333007812 633.333007812 l 1
EndSplineSet
PairPos2: "kern-lut" uni0009 dx=0 dy=0 dh=-333 dv=0 dx=0 dy=0 dh=0 dv=0
PairPos2: "kern-lut" uni000A dx=0 dy=0 dh=-333 dv=0 dx=0 dy=0 dh=0 dv=0
EndChar

StartChar: two
Encoding: 50 50 8
Width: 1333
VWidth: 0
Flags: W
LayerCount: 2
Fore
SplineSet
0 633.333007812 m 1
 0 800 l 1
 166.666992188 800 l 1
 333.333007812 800 l 1
 333.333007812 633.333007812 l 1
 333.333007812 466.666992188 l 1
 500 466.666992188 l 1
 666.666992188 466.666992188 l 1
 666.666992188 300 l 1
 666.666992188 133.333007812 l 1
 833.333007812 133.333007812 l 1
 1000 133.333007812 l 1
 1000 -33.3330078125 l 1
 1000 -200 l 1
 500 -200 l 1
 0 -200 l 1
 0 -33.3330078125 l 1
 0 133.333007812 l 1
 166.666992188 133.333007812 l 1
 333.333007812 133.333007812 l 1
 333.333007812 300 l 1
 333.333007812 466.666992188 l 1
 166.666992188 466.666992188 l 1
 0 466.666992188 l 1
 0 633.333007812 l 1
EndSplineSet
PairPos2: "kern-lut" uni0009 dx=0 dy=0 dh=-333 dv=0 dx=0 dy=0 dh=0 dv=0
PairPos2: "kern-lut" uni000A dx=0 dy=0 dh=-333 dv=0 dx=0 dy=0 dh=0 dv=0
EndChar

StartChar: three
Encoding: 51 51 9
Width: 1333
VWidth: 0
Flags: W
LayerCount: 2
Fore
SplineSet
0 633.333007812 m 1
 0 800 l 1
 500 800 l 1
 1000 800 l 1
 1000 300 l 1
 1000 -200 l 1
 500 -200 l 1
 0 -200 l 1
 0 -33.3330078125 l 1
 0 133.333007812 l 1
 166.666992188 133.333007812 l 1
 333.333007812 133.333007812 l 1
 333.333007812 300 l 1
 333.333007812 466.666992188 l 1
 166.666992188 466.666992188 l 1
 0 466.666992188 l 1
 0 633.333007812 l 1
EndSplineSet
PairPos2: "kern-lut" uni0009 dx=0 dy=0 dh=-333 dv=0 dx=0 dy=0 dh=0 dv=0
PairPos2: "kern-lut" uni000A dx=0 dy=0 dh=-333 dv=0 dx=0 dy=0 dh=0 dv=0
EndChar

StartChar: four
Encoding: 52 52 10
Width: 1333
VWidth: 0
Flags: W
LayerCount: 2
Fore
SplineSet
0 466.666992188 m 1
 0 800 l 1
 166.666992188 800 l 1
 333.333007812 800 l 1
 333.333007812 633.333007812 l 1
 333.333007812 466.666992188 l 1
 500 466.666992188 l 1
 666.666992188 466.666992188 l 1
 666.666992188 633.333007812 l 1
 666.666992188 800 l 1
 833.333007812 800 l 1
 1000 800 l 1
 1000 300 l 1
 1000 -200 l 1
 833.333007812 -200 l 1
 666.666992188 -200 l 1
 666.666992188 -33.3330078125 l 1
 666.666992188 133.333007812 l 1
 333.333007812 133.333007812 l 1
 0 133.333007812 l 1
 0 466.666992188 l 1
EndSplineSet
PairPos2: "kern-lut" uni0009 dx=0 dy=0 dh=-333 dv=0 dx=0 dy=0 dh=0 dv=0
PairPos2: "kern-lut" uni000A dx=0 dy=0 dh=-333 dv=0 dx=0 dy=0 dh=0 dv=0
EndChar

StartChar: five
Encoding: 53 53 11
Width: 1333
VWidth: 0
Flags: W
LayerCount: 2
Fore
SplineSet
333.333007812 466.666992188 m 1
 333.333007812 800 l 1
 666.666992188 800 l 1
 1000 800 l 1
 1000 466.666992188 l 1
 1000 133.333007812 l 1
 833.333007812 133.333007812 l 1
 666.666992188 133.333007812 l 1
 666.666992188 -33.3330078125 l 1
 666.666992188 -200 l 1
 333.333007812 -200 l 1
 0 -200 l 1
 0 -33.3330078125 l 1
 0 133.333007812 l 1
 166.666992188 133.333007812 l 1
 333.333007812 133.333007812 l 1
 333.333007812 466.666992188 l 1
EndSplineSet
PairPos2: "kern-lut" uni0009 dx=0 dy=0 dh=-333 dv=0 dx=0 dy=0 dh=0 dv=0
PairPos2: "kern-lut" uni000A dx=0 dy=0 dh=-333 dv=0 dx=0 dy=0 dh=0 dv=0
EndChar

StartChar: six
Encoding: 54 54 12
Width: 1333
VWidth: 0
Flags: W
LayerCount: 2
Fore
SplineSet
0 300 m 1
 0 800 l 1
 166.666992188 800 l 1
 333.333007812 800 l 1
 333.333007812 633.333007812 l 1
 333.333007812 466.666992188 l 1
 666.666992188 466.666992188 l 1
 1000 466.666992188 l 1
 1000 133.333007812 l 1
 1000 -200 l 1
 500 -200 l 1
 0 -200 l 1
 0 300 l 1
EndSplineSet
PairPos2: "kern-lut" uni0009 dx=0 dy=0 dh=-333 dv=0 dx=0 dy=0 dh=0 dv=0
PairPos2: "kern-lut" uni000A dx=0 dy=0 dh=-333 dv=0 dx=0 dy=0 dh=0 dv=0
EndChar

StartChar: seven
Encoding: 55 55 13
Width: 1333
VWidth: 0
Flags: W
LayerCount: 2
Fore
SplineSet
0 633.333007812 m 1
 0 800 l 1
 500 800 l 1
 1000 800 l 1
 1000 300 l 1
 1000 -200 l 1
 833.333007812 -200 l 1
 666.666992188 -200 l 1
 666.666992188 133.333007812 l 1
 666.666992188 466.666992188 l 1
 333.333007812 466.666992188 l 1
 0 466.666992188 l 1
 0 633.333007812 l 1
EndSplineSet
PairPos2: "kern-lut" uni0009 dx=0 dy=0 dh=-333 dv=0 dx=0 dy=0 dh=0 dv=0
PairPos2: "kern-lut" uni000A dx=0 dy=0 dh=-333 dv=0 dx=0 dy=0 dh=0 dv=0
EndChar

StartChar: eight
Encoding: 56 56 14
Width: 1333
VWidth: 0
Flags: W
LayerCount: 2
Fore
SplineSet
333.333007812 633.333007812 m 1
 333.333007812 800 l 1
 666.666992188 800 l 1
 1000 800 l 1
 1000 300 l 1
 1000 -200 l 1
 500 -200 l 1
 0 -200 l 1
 0 133.333007812 l 1
 0 466.666992188 l 1
 166.666992188 466.666992188 l 1
 333.333007812 466.666992188 l 1
 333.333007812 633.333007812 l 1
EndSplineSet
PairPos2: "kern-lut" uni0009 dx=0 dy=0 dh=-333 dv=0 dx=0 dy=0 dh=0 dv=0
PairPos2: "kern-lut" uni000A dx=0 dy=0 dh=-333 dv=0 dx=0 dy=0 dh=0 dv=0
EndChar

StartChar: nine
Encoding: 57 57 15
Width: 1333
VWidth: 0
Flags: W
LayerCount: 2
Fore
SplineSet
0 466.666992188 m 1
 0 800 l 1
 500 800 l 1
 1000 800 l 1
 1000 300 l 1
 1000 -200 l 1
 833.333007812 -200 l 1
 666.666992188 -200 l 1
 666.666992188 -33.3330078125 l 1
 666.666992188 133.333007812 l 1
 333.333007812 133.333007812 l 1
 0 133.333007812 l 1
 0 466.666992188 l 1
EndSplineSet
PairPos2: "kern-lut" uni0009 dx=0 dy=0 dh=-333 dv=0 dx=0 dy=0 dh=0 dv=0
PairPos2: "kern-lut" uni000A dx=0 dy=0 dh=-333 dv=0 dx=0 dy=0 dh=0 dv=0
EndChar

StartChar: colon
Encoding: 58 58 16
Width: 1333
VWidth: 0
Flags: W
LayerCount: 2
Fore
SplineSet
0 633.333007812 m 1
 0 800 l 1
 166.666992188 800 l 1
 333.333007812 800 l 1
 333.333007812 633.333007812 l 1
 333.333007812 466.666992188 l 1
 166.666992188 466.666992188 l 1
 0 466.666992188 l 1
 0 633.333007812 l 1
0 -33.3330078125 m 1
 0 133.333007812 l 1
 166.666992188 133.333007812 l 1
 333.333007812 133.333007812 l 1
 333.333007812 -33.3330078125 l 1
 333.333007812 -200 l 1
 166.666992188 -200 l 1
 0 -200 l 1
 0 -33.3330078125 l 1
EndSplineSet
PairPos2: "kern-lut" uni0009 dx=0 dy=0 dh=-333 dv=0 dx=0 dy=0 dh=0 dv=0
PairPos2: "kern-lut" uni000A dx=0 dy=0 dh=-333 dv=0 dx=0 dy=0 dh=0 dv=0
EndChar

StartChar: semicolon
Encoding: 59 59 17
Width: 1333
VWidth: 0
Flags: W
LayerCount: 2
Fore
SplineSet
0 633.333007812 m 1
 0 800 l 1
 166.666992188 800 l 1
 333.333007812 800 l 1
 333.333007812 633.333007812 l 1
 333.333007812 466.666992188 l 1
 166.666992188 466.666992188 l 1
 0 466.666992188 l 1
 0 633.333007812 l 1
666.666992188 300 m 1
 666.666992188 466.666992188 l 1
 833.333007812 466.666992188 l 1
 1000 466.666992188 l 1
 1000 300 l 1
 1000 133.333007812 l 1
 833.333007812 133.333007812 l 1
 666.666992188 133.333007812 l 1
 666.666992188 -33.3330078125 l 1
 666.666992188 -200 l 1
 500 -200 l 1
 333.333007812 -200 l 1
 333.333007812 -33.3330078125 l 1
 333.333007812 133.333007812 l 1
 500 133.333007812 l 1
 666.666992188 133.333007812 l 1
 666.666992188 300 l 1
EndSplineSet
PairPos2: "kern-lut" uni0009 dx=0 dy=0 dh=-333 dv=0 dx=0 dy=0 dh=0 dv=0
PairPos2: "kern-lut" uni000A dx=0 dy=0 dh=-333 dv=0 dx=0 dy=0 dh=0 dv=0
EndChar

StartChar: A
Encoding: 65 65 18
Width: 1333
VWidth: 0
Flags: W
LayerCount: 2
Fore
SplineSet
333.333007812 633.333007812 m 1
 333.333007812 800 l 1
 500 800 l 1
 666.666992188 800 l 1
 666.666992188 633.333007812 l 1
 666.666992188 466.666992188 l 1
 833.333007812 466.666992188 l 1
 1000 466.666992188 l 1
 1000 133.333007812 l 1
 1000 -200 l 1
 833.333007812 -200 l 1
 666.666992188 -200 l 1
 666.666992188 -33.3330078125 l 1
 666.666992188 133.333007812 l 1
 500 133.333007812 l 1
 333.333007812 133.333007812 l 1
 333.333007812 -33.3330078125 l 1
 333.333007812 -200 l 1
 166.666992188 -200 l 1
 0 -200 l 1
 0 133.333007812 l 1
 0 466.666992188 l 1
 166.666992188 466.666992188 l 1
 333.333007812 466.666992188 l 1
 333.333007812 633.333007812 l 1
EndSplineSet
PairPos2: "kern-lut" uni0009 dx=0 dy=0 dh=-333 dv=0 dx=0 dy=0 dh=0 dv=0
PairPos2: "kern-lut" uni000A dx=0 dy=0 dh=-333 dv=0 dx=0 dy=0 dh=0 dv=0
EndChar

StartChar: B
Encoding: 66 66 19
Width: 1333
VWidth: 0
Flags: W
LayerCount: 2
Fore
SplineSet
0 300 m 1
 0 800 l 1
 333.333007812 800 l 1
 666.666992188 800 l 1
 666.666992188 633.333007812 l 1
 666.666992188 466.666992188 l 1
 833.333007812 466.666992188 l 1
 1000 466.666992188 l 1
 1000 133.333007812 l 1
 1000 -200 l 1
 500 -200 l 1
 0 -200 l 1
 0 300 l 1
EndSplineSet
PairPos2: "kern-lut" uni0009 dx=0 dy=0 dh=-333 dv=0 dx=0 dy=0 dh=0 dv=0
PairPos2: "kern-lut" uni000A dx=0 dy=0 dh=-333 dv=0 dx=0 dy=0 dh=0 dv=0
EndChar

StartChar: C
Encoding: 67 67 20
Width: 1333
VWidth: 0
Flags: W
LayerCount: 2
Fore
SplineSet
0 300 m 1
 0 800 l 1
 500 800 l 1
 1000 800 l 1
 1000 633.333007812 l 1
 1000 466.666992188 l 1
 666.666992188 466.666992188 l 1
 333.333007812 466.666992188 l 1
 333.333007812 300 l 1
 333.333007812 133.333007812 l 1
 666.666992188 133.333007812 l 1
 1000 133.333007812 l 1
 1000 -33.3330078125 l 1
 1000 -200 l 1
 500 -200 l 1
 0 -200 l 1
 0 300 l 1
EndSplineSet
PairPos2: "kern-lut" uni0009 dx=0 dy=0 dh=-333 dv=0 dx=0 dy=0 dh=0 dv=0
PairPos2: "kern-lut" uni000A dx=0 dy=0 dh=-333 dv=0 dx=0 dy=0 dh=0 dv=0
EndChar

StartChar: D
Encoding: 68 68 21
Width: 1333
VWidth: 0
Flags: W
LayerCount: 2
Fore
SplineSet
0 300 m 1
 0 800 l 1
 333.333007812 800 l 1
 666.666992188 800 l 1
 666.666992188 633.333007812 l 1
 666.666992188 466.666992188 l 1
 833.333007812 466.666992188 l 1
 1000 466.666992188 l 1
 1000 300 l 1
 1000 133.333007812 l 1
 833.333007812 133.333007812 l 1
 666.666992188 133.333007812 l 1
 666.666992188 -33.3330078125 l 1
 666.666992188 -200 l 1
 333.333007812 -200 l 1
 0 -200 l 1
 0 300 l 1
666.666992188 300 m 1
 666.666992188 466.666992188 l 1
 500 466.666992188 l 1
 333.333007812 466.666992188 l 1
 333.333007812 300 l 1
 333.333007812 133.333007812 l 1
 500 133.333007812 l 1
 666.666992188 133.333007812 l 1
 666.666992188 300 l 1
EndSplineSet
PairPos2: "kern-lut" uni0009 dx=0 dy=0 dh=-333 dv=0 dx=0 dy=0 dh=0 dv=0
PairPos2: "kern-lut" uni000A dx=0 dy=0 dh=-333 dv=0 dx=0 dy=0 dh=0 dv=0
EndChar

StartChar: E
Encoding: 69 69 22
Width: 1333
VWidth: 0
Flags: W
LayerCount: 2
Fore
SplineSet
0 300 m 1
 0 800 l 1
 500 800 l 1
 1000 800 l 1
 1000 633.333007812 l 1
 1000 466.666992188 l 1
 833.333007812 466.666992188 l 1
 666.666992188 466.666992188 l 1
 666.666992188 300 l 1
 666.666992188 133.333007812 l 1
 833.333007812 133.333007812 l 1
 1000 133.333007812 l 1
 1000 -33.3330078125 l 1
 1000 -200 l 1
 500 -200 l 1
 0 -200 l 1
 0 300 l 1
EndSplineSet
PairPos2: "kern-lut" uni0009 dx=0 dy=0 dh=-333 dv=0 dx=0 dy=0 dh=0 dv=0
PairPos2: "kern-lut" uni000A dx=0 dy=0 dh=-333 dv=0 dx=0 dy=0 dh=0 dv=0
EndChar

StartChar: F
Encoding: 70 70 23
Width: 1333
VWidth: 0
Flags: W
LayerCount: 2
Fore
SplineSet
0 300 m 1
 0 800 l 1
 500 800 l 1
 1000 800 l 1
 1000 633.333007812 l 1
 1000 466.666992188 l 1
 833.333007812 466.666992188 l 1
 666.666992188 466.666992188 l 1
 666.666992188 300 l 1
 666.666992188 133.333007812 l 1
 500 133.333007812 l 1
 333.333007812 133.333007812 l 1
 333.333007812 -33.3330078125 l 1
 333.333007812 -200 l 1
 166.666992188 -200 l 1
 0 -200 l 1
 0 300 l 1
EndSplineSet
PairPos2: "kern-lut" uni0009 dx=0 dy=0 dh=-333 dv=0 dx=0 dy=0 dh=0 dv=0
PairPos2: "kern-lut" uni000A dx=0 dy=0 dh=-333 dv=0 dx=0 dy=0 dh=0 dv=0
EndChar

StartChar: G
Encoding: 71 71 24
Width: 1333
VWidth: 0
Flags: W
LayerCount: 2
Fore
SplineSet
0 300 m 1
 0 800 l 1
 333.333007812 800 l 1
 666.666992188 800 l 1
 666.666992188 633.333007812 l 1
 666.666992188 466.666992188 l 1
 833.333007812 466.666992188 l 1
 1000 466.666992188 l 1
 1000 133.333007812 l 1
 1000 -200 l 1
 500 -200 l 1
 0 -200 l 1
 0 300 l 1
666.666992188 300 m 1
 666.666992188 466.666992188 l 1
 500 466.666992188 l 1
 333.333007812 466.666992188 l 1
 333.333007812 300 l 1
 333.333007812 133.333007812 l 1
 500 133.333007812 l 1
 666.666992188 133.333007812 l 1
 666.666992188 300 l 1
EndSplineSet
PairPos2: "kern-lut" uni0009 dx=0 dy=0 dh=-333 dv=0 dx=0 dy=0 dh=0 dv=0
PairPos2: "kern-lut" uni000A dx=0 dy=0 dh=-333 dv=0 dx=0 dy=0 dh=0 dv=0
EndChar

StartChar: H
Encoding: 72 72 25
Width: 1333
VWidth: 0
Flags: W
LayerCount: 2
Fore
SplineSet
0 300 m 1
 0 800 l 1
 166.666992188 800 l 1
 333.333007812 800 l 1
 333.333007812 633.333007812 l 1
 333.333007812 466.666992188 l 1
 500 466.666992188 l 1
 666.666992188 466.666992188 l 1
 666.666992188 633.333007812 l 1
 666.666992188 800 l 1
 833.333007812 800 l 1
 1000 800 l 1
 1000 300 l 1
 1000 -200 l 1
 833.333007812 -200 l 1
 666.666992188 -200 l 1
 666.666992188 -33.3330078125 l 1
 666.666992188 133.333007812 l 1
 500 133.333007812 l 1
 333.333007812 133.333007812 l 1
 333.333007812 -33.3330078125 l 1
 333.333007812 -200 l 1
 166.666992188 -200 l 1
 0 -200 l 1
 0 300 l 1
EndSplineSet
PairPos2: "kern-lut" uni0009 dx=0 dy=0 dh=-333 dv=0 dx=0 dy=0 dh=0 dv=0
PairPos2: "kern-lut" uni000A dx=0 dy=0 dh=-333 dv=0 dx=0 dy=0 dh=0 dv=0
EndChar

StartChar: I
Encoding: 73 73 26
Width: 1333
VWidth: 0
Flags: W
LayerCount: 2
Fore
SplineSet
0 633.333007812 m 1
 0 800 l 1
 500 800 l 1
 1000 800 l 1
 1000 633.333007812 l 1
 1000 466.666992188 l 1
 833.333007812 466.666992188 l 1
 666.666992188 466.666992188 l 1
 666.666992188 300 l 1
 666.666992188 133.333007812 l 1
 833.333007812 133.333007812 l 1
 1000 133.333007812 l 1
 1000 -33.3330078125 l 1
 1000 -200 l 1
 500 -200 l 1
 0 -200 l 1
 0 -33.3330078125 l 1
 0 133.333007812 l 1
 166.666992188 133.333007812 l 1
 333.333007812 133.333007812 l 1
 333.333007812 300 l 1
 333.333007812 466.666992188 l 1
 166.666992188 466.666992188 l 1
 0 466.666992188 l 1
 0 633.333007812 l 1
EndSplineSet
PairPos2: "kern-lut" uni0009 dx=0 dy=0 dh=-333 dv=0 dx=0 dy=0 dh=0 dv=0
PairPos2: "kern-lut" uni000A dx=0 dy=0 dh=-333 dv=0 dx=0 dy=0 dh=0 dv=0
EndChar

StartChar: J
Encoding: 74 74 27
Width: 1333
VWidth: 0
Flags: W
LayerCount: 2
Fore
SplineSet
666.666992188 466.666992188 m 1
 666.666992188 800 l 1
 833.333007812 800 l 1
 1000 800 l 1
 1000 300 l 1
 1000 -200 l 1
 500 -200 l 1
 0 -200 l 1
 0 133.333007812 l 1
 0 466.666992188 l 1
 166.666992188 466.666992188 l 1
 333.333007812 466.666992188 l 1
 333.333007812 300 l 1
 333.333007812 133.333007812 l 1
 500 133.333007812 l 1
 666.666992188 133.333007812 l 1
 666.666992188 466.666992188 l 1
EndSplineSet
PairPos2: "kern-lut" uni0009 dx=0 dy=0 dh=-333 dv=0 dx=0 dy=0 dh=0 dv=0
PairPos2: "kern-lut" uni000A dx=0 dy=0 dh=-333 dv=0 dx=0 dy=0 dh=0 dv=0
EndChar

StartChar: K
Encoding: 75 75 28
Width: 1333
VWidth: 0
Flags: W
LayerCount: 2
Fore
SplineSet
0 300 m 1
 0 800 l 1
 166.666992188 800 l 1
 333.333007812 800 l 1
 333.333007812 633.333007812 l 1
 333.333007812 466.666992188 l 1
 500 466.666992188 l 1
 666.666992188 466.666992188 l 1
 666.666992188 633.333007812 l 1
 666.666992188 800 l 1
 833.333007812 800 l 1
 1000 800 l 1
 1000 633.333007812 l 1
 1000 466.666992188 l 1
 833.333007812 466.666992188 l 1
 666.666992188 466.666992188 l 1
 666.666992188 300 l 1
 666.666992188 133.333007812 l 1
 833.333007812 133.333007812 l 1
 1000 133.333007812 l 1
 1000 -33.3330078125 l 1
 1000 -200 l 1
 833.333007812 -200 l 1
 666.666992188 -200 l 1
 666.666992188 -33.3330078125 l 1
 666.666992188 133.333007812 l 1
 500 133.333007812 l 1
 333.333007812 133.333007812 l 1
 333.333007812 -33.3330078125 l 1
 333.333007812 -200 l 1
 166.666992188 -200 l 1
 0 -200 l 1
 0 300 l 1
EndSplineSet
PairPos2: "kern-lut" uni0009 dx=0 dy=0 dh=-333 dv=0 dx=0 dy=0 dh=0 dv=0
PairPos2: "kern-lut" uni000A dx=0 dy=0 dh=-333 dv=0 dx=0 dy=0 dh=0 dv=0
EndChar

StartChar: L
Encoding: 76 76 29
Width: 1333
VWidth: 0
Flags: W
LayerCount: 2
Fore
SplineSet
0 300 m 1
 0 800 l 1
 166.666992188 800 l 1
 333.333007812 800 l 1
 333.333007812 466.666992188 l 1
 333.333007812 133.333007812 l 1
 666.666992188 133.333007812 l 1
 1000 133.333007812 l 1
 1000 -33.3330078125 l 1
 1000 -200 l 1
 500 -200 l 1
 0 -200 l 1
 0 300 l 1
EndSplineSet
PairPos2: "kern-lut" uni0009 dx=0 dy=0 dh=-333 dv=0 dx=0 dy=0 dh=0 dv=0
PairPos2: "kern-lut" uni000A dx=0 dy=0 dh=-333 dv=0 dx=0 dy=0 dh=0 dv=0
EndChar

StartChar: M
Encoding: 77 77 30
Width: 1333
VWidth: 0
Flags: W
LayerCount: 2
Fore
SplineSet
0 300 m 1
 0 800 l 1
 166.666992188 800 l 1
 333.333007812 800 l 1
 333.333007812 633.333007812 l 1
 333.333007812 466.666992188 l 1
 500 466.666992188 l 1
 666.666992188 466.666992188 l 1
 666.666992188 633.333007812 l 1
 666.666992188 800 l 1
 833.333007812 800 l 1
 1000 800 l 1
 1000 300 l 1
 1000 -200 l 1
 500 -200 l 1
 0 -200 l 1
 0 300 l 1
EndSplineSet
PairPos2: "kern-lut" uni0009 dx=0 dy=0 dh=-333 dv=0 dx=0 dy=0 dh=0 dv=0
PairPos2: "kern-lut" uni000A dx=0 dy=0 dh=-333 dv=0 dx=0 dy=0 dh=0 dv=0
EndChar

StartChar: N
Encoding: 78 78 31
Width: 1333
VWidth: 0
Flags: W
LayerCount: 2
Fore
SplineSet
0 300 m 1
 0 800 l 1
 333.333007812 800 l 1
 666.666992188 800 l 1
 666.666992188 633.333007812 l 1
 666.666992188 466.666992188 l 1
 833.333007812 466.666992188 l 1
 1000 466.666992188 l 1
 1000 133.333007812 l 1
 1000 -200 l 1
 833.333007812 -200 l 1
 666.666992188 -200 l 1
 666.666992188 133.333007812 l 1
 666.666992188 466.666992188 l 1
 500 466.666992188 l 1
 333.333007812 466.666992188 l 1
 333.333007812 133.333007812 l 1
 333.333007812 -200 l 1
 166.666992188 -200 l 1
 0 -200 l 1
 0 300 l 1
EndSplineSet
PairPos2: "kern-lut" uni0009 dx=0 dy=0 dh=-333 dv=0 dx=0 dy=0 dh=0 dv=0
PairPos2: "kern-lut" uni000A dx=0 dy=0 dh=-333 dv=0 dx=0 dy=0 dh=0 dv=0
EndChar

StartChar: O
Encoding: 79 79 32
Width: 1333
VWidth: 0
Flags: W
LayerCount: 2
Fore
SplineSet
0 300 m 1
 0 800 l 1
 500 800 l 1
 1000 800 l 1
 1000 300 l 1
 1000 -200 l 1
 500 -200 l 1
 0 -200 l 1
 0 300 l 1
666.666992188 300 m 1
 666.666992188 466.666992188 l 1
 500 466.666992188 l 1
 333.333007812 466.666992188 l 1
 333.333007812 300 l 1
 333.333007812 133.333007812 l 1
 500 133.333007812 l 1
 666.666992188 133.333007812 l 1
 666.666992188 300 l 1
EndSplineSet
PairPos2: "kern-lut" uni0009 dx=0 dy=0 dh=-333 dv=0 dx=0 dy=0 dh=0 dv=0
PairPos2: "kern-lut" uni000A dx=0 dy=0 dh=-333 dv=0 dx=0 dy=0 dh=0 dv=0
EndChar

StartChar: P
Encoding: 80 80 33
Width: 1333
VWidth: 0
Flags: W
LayerCount: 2
Fore
SplineSet
0 300 m 1
 0 800 l 1
 500 800 l 1
 1000 800 l 1
 1000 466.666992188 l 1
 1000 133.333007812 l 1
 666.666992188 133.333007812 l 1
 333.333007812 133.333007812 l 1
 333.333007812 -33.3330078125 l 1
 333.333007812 -200 l 1
 166.666992188 -200 l 1
 0 -200 l 1
 0 300 l 1
EndSplineSet
PairPos2: "kern-lut" uni0009 dx=0 dy=0 dh=-333 dv=0 dx=0 dy=0 dh=0 dv=0
PairPos2: "kern-lut" uni000A dx=0 dy=0 dh=-333 dv=0 dx=0 dy=0 dh=0 dv=0
EndChar

StartChar: Q
Encoding: 81 81 34
Width: 1333
VWidth: 0
Flags: W
LayerCount: 2
Fore
SplineSet
333.333007812 633.333007812 m 1
 333.333007812 800 l 1
 500 800 l 1
 666.666992188 800 l 1
 666.666992188 633.333007812 l 1
 666.666992188 466.666992188 l 1
 833.333007812 466.666992188 l 1
 1000 466.666992188 l 1
 1000 133.333007812 l 1
 1000 -200 l 1
 666.666992188 -200 l 1
 333.333007812 -200 l 1
 333.333007812 -33.3330078125 l 1
 333.333007812 133.333007812 l 1
 166.666992188 133.333007812 l 1
 0 133.333007812 l 1
 0 300 l 1
 0 466.666992188 l 1
 166.666992188 466.666992188 l 1
 333.333007812 466.666992188 l 1
 333.333007812 633.333007812 l 1
666.666992188 300 m 1
 666.666992188 466.666992188 l 1
 500 466.666992188 l 1
 333.333007812 466.666992188 l 1
 333.333007812 300 l 1
 333.333007812 133.333007812 l 1
 500 133.333007812 l 1
 666.666992188 133.333007812 l 1
 666.666992188 300 l 1
EndSplineSet
PairPos2: "kern-lut" uni0009 dx=0 dy=0 dh=-333 dv=0 dx=0 dy=0 dh=0 dv=0
PairPos2: "kern-lut" uni000A dx=0 dy=0 dh=-333 dv=0 dx=0 dy=0 dh=0 dv=0
EndChar

StartChar: R
Encoding: 82 82 35
Width: 1333
VWidth: 0
Flags: W
LayerCount: 2
Fore
SplineSet
0 300 m 1
 0 800 l 1
 333.333007812 800 l 1
 666.666992188 800 l 1
 666.666992188 633.333007812 l 1
 666.666992188 466.666992188 l 1
 833.333007812 466.666992188 l 1
 1000 466.666992188 l 1
 1000 133.333007812 l 1
 1000 -200 l 1
 833.333007812 -200 l 1
 666.666992188 -200 l 1
 666.666992188 -33.3330078125 l 1
 666.666992188 133.333007812 l 1
 500 133.333007812 l 1
 333.333007812 133.333007812 l 1
 333.333007812 -33.3330078125 l 1
 333.333007812 -200 l 1
 166.666992188 -200 l 1
 0 -200 l 1
 0 300 l 1
EndSplineSet
PairPos2: "kern-lut" uni0009 dx=0 dy=0 dh=-333 dv=0 dx=0 dy=0 dh=0 dv=0
PairPos2: "kern-lut" uni000A dx=0 dy=0 dh=-333 dv=0 dx=0 dy=0 dh=0 dv=0
EndChar

StartChar: S
Encoding: 83 83 36
Width: 1333
VWidth: 0
Flags: W
LayerCount: 2
Fore
SplineSet
333.333007812 466.666992188 m 1
 333.333007812 800 l 1
 666.666992188 800 l 1
 1000 800 l 1
 1000 633.333007812 l 1
 1000 466.666992188 l 1
 833.333007812 466.666992188 l 1
 666.666992188 466.666992188 l 1
 666.666992188 133.333007812 l 1
 666.666992188 -200 l 1
 333.333007812 -200 l 1
 0 -200 l 1
 0 -33.3330078125 l 1
 0 133.333007812 l 1
 166.666992188 133.333007812 l 1
 333.333007812 133.333007812 l 1
 333.333007812 466.666992188 l 1
EndSplineSet
PairPos2: "kern-lut" uni0009 dx=0 dy=0 dh=-333 dv=0 dx=0 dy=0 dh=0 dv=0
PairPos2: "kern-lut" uni000A dx=0 dy=0 dh=-333 dv=0 dx=0 dy=0 dh=0 dv=0
EndChar

StartChar: T
Encoding: 84 84 37
Width: 1333
VWidth: 0
Flags: W
LayerCount: 2
Fore
SplineSet
0 633.333007812 m 1
 0 800 l 1
 500 800 l 1
 1000 800 l 1
 1000 633.333007812 l 1
 1000 466.666992188 l 1
 833.333007812 466.666992188 l 1
 666.666992188 466.666992188 l 1
 666.666992188 133.333007812 l 1
 666.666992188 -200 l 1
 500 -200 l 1
 333.333007812 -200 l 1
 333.333007812 133.333007812 l 1
 333.333007812 466.666992188 l 1
 166.666992188 466.666992188 l 1
 0 466.666992188 l 1
 0 633.333007812 l 1
EndSplineSet
PairPos2: "kern-lut" uni0009 dx=0 dy=0 dh=-333 dv=0 dx=0 dy=0 dh=0 dv=0
PairPos2: "kern-lut" uni000A dx=0 dy=0 dh=-333 dv=0 dx=0 dy=0 dh=0 dv=0
EndChar

StartChar: U
Encoding: 85 85 38
Width: 1333
VWidth: 0
Flags: W
LayerCount: 2
Fore
SplineSet
0 300 m 1
 0 800 l 1
 166.666992188 800 l 1
 333.333007812 800 l 1
 333.333007812 466.666992188 l 1
 333.333007812 133.333007812 l 1
 500 133.333007812 l 1
 666.666992188 133.333007812 l 1
 666.666992188 466.666992188 l 1
 666.666992188 800 l 1
 833.333007812 800 l 1
 1000 800 l 1
 1000 300 l 1
 1000 -200 l 1
 500 -200 l 1
 0 -200 l 1
 0 300 l 1
EndSplineSet
PairPos2: "kern-lut" uni0009 dx=0 dy=0 dh=-333 dv=0 dx=0 dy=0 dh=0 dv=0
PairPos2: "kern-lut" uni000A dx=0 dy=0 dh=-333 dv=0 dx=0 dy=0 dh=0 dv=0
EndChar

StartChar: V
Encoding: 86 86 39
Width: 1333
VWidth: 0
Flags: W
LayerCount: 2
Fore
SplineSet
0 466.666992188 m 1
 0 800 l 1
 166.666992188 800 l 1
 333.333007812 800 l 1
 333.333007812 466.666992188 l 1
 333.333007812 133.333007812 l 1
 500 133.333007812 l 1
 666.666992188 133.333007812 l 1
 666.666992188 466.666992188 l 1
 666.666992188 800 l 1
 833.333007812 800 l 1
 1000 800 l 1
 1000 466.666992188 l 1
 1000 133.333007812 l 1
 833.333007812 133.333007812 l 1
 666.666992188 133.333007812 l 1
 666.666992188 -33.3330078125 l 1
 666.666992188 -200 l 1
 500 -200 l 1
 333.333007812 -200 l 1
 333.333007812 -33.3330078125 l 1
 333.333007812 133.333007812 l 1
 166.666992188 133.333007812 l 1
 0 133.333007812 l 1
 0 466.666992188 l 1
EndSplineSet
PairPos2: "kern-lut" uni0009 dx=0 dy=0 dh=-333 dv=0 dx=0 dy=0 dh=0 dv=0
PairPos2: "kern-lut" uni000A dx=0 dy=0 dh=-333 dv=0 dx=0 dy=0 dh=0 dv=0
EndChar

StartChar: W
Encoding: 87 87 40
Width: 1333
VWidth: 0
Flags: W
LayerCount: 2
Fore
SplineSet
0 300 m 1
 0 800 l 1
 166.666992188 800 l 1
 333.333007812 800 l 1
 333.333007812 633.333007812 l 1
 333.333007812 466.666992188 l 1
 500 466.666992188 l 1
 666.666992188 466.666992188 l 1
 666.666992188 633.333007812 l 1
 666.666992188 800 l 1
 833.333007812 800 l 1
 1000 800 l 1
 1000 300 l 1
 1000 -200 l 1
 500 -200 l 1
 0 -200 l 1
 0 300 l 1
EndSplineSet
PairPos2: "kern-lut" uni0009 dx=0 dy=0 dh=-333 dv=0 dx=0 dy=0 dh=0 dv=0
PairPos2: "kern-lut" uni000A dx=0 dy=0 dh=-333 dv=0 dx=0 dy=0 dh=0 dv=0
EndChar

StartChar: X
Encoding: 88 88 41
Width: 1333
VWidth: 0
Flags: W
LayerCount: 2
Fore
SplineSet
0 633.333007812 m 1
 0 800 l 1
 166.666992188 800 l 1
 333.333007812 800 l 1
 333.333007812 633.333007812 l 1
 333.333007812 466.666992188 l 1
 500 466.666992188 l 1
 666.666992188 466.666992188 l 1
 666.666992188 633.333007812 l 1
 666.666992188 800 l 1
 833.333007812 800 l 1
 1000 800 l 1
 1000 633.333007812 l 1
 1000 466.666992188 l 1
 833.333007812 466.666992188 l 1
 666.666992188 466.666992188 l 1
 666.666992188 300 l 1
 666.666992188 133.333007812 l 1
 833.333007812 133.333007812 l 1
 1000 133.333007812 l 1
 1000 -33.3330078125 l 1
 1000 -200 l 1
 833.333007812 -200 l 1
 666.666992188 -200 l 1
 666.666992188 -33.3330078125 l 1
 666.666992188 133.333007812 l 1
 500 133.333007812 l 1
 333.333007812 133.333007812 l 1
 333.333007812 -33.3330078125 l 1
 333.333007812 -200 l 1
 166.666992188 -200 l 1
 0 -200 l 1
 0 -33.3330078125 l 1
 0 133.333007812 l 1
 166.666992188 133.333007812 l 1
 333.333007812 133.333007812 l 1
 333.333007812 300 l 1
 333.333007812 466.666992188 l 1
 166.666992188 466.666992188 l 1
 0 466.666992188 l 1
 0 633.333007812 l 1
EndSplineSet
PairPos2: "kern-lut" uni0009 dx=0 dy=0 dh=-333 dv=0 dx=0 dy=0 dh=0 dv=0
PairPos2: "kern-lut" uni000A dx=0 dy=0 dh=-333 dv=0 dx=0 dy=0 dh=0 dv=0
EndChar

StartChar: Y
Encoding: 89 89 42
Width: 1333
VWidth: 0
Flags: W
LayerCount: 2
Fore
SplineSet
0 466.666992188 m 1
 0 800 l 1
 166.666992188 800 l 1
 333.333007812 800 l 1
 333.333007812 633.333007812 l 1
 333.333007812 466.666992188 l 1
 500 466.666992188 l 1
 666.666992188 466.666992188 l 1
 666.666992188 633.333007812 l 1
 666.666992188 800 l 1
 833.333007812 800 l 1
 1000 800 l 1
 1000 466.666992188 l 1
 1000 133.333007812 l 1
 833.333007812 133.333007812 l 1
 666.666992188 133.333007812 l 1
 666.666992188 -33.3330078125 l 1
 666.666992188 -200 l 1
 500 -200 l 1
 333.333007812 -200 l 1
 333.333007812 -33.3330078125 l 1
 333.333007812 133.333007812 l 1
 166.666992188 133.333007812 l 1
 0 133.333007812 l 1
 0 466.666992188 l 1
EndSplineSet
PairPos2: "kern-lut" uni0009 dx=0 dy=0 dh=-333 dv=0 dx=0 dy=0 dh=0 dv=0
PairPos2: "kern-lut" uni000A dx=0 dy=0 dh=-333 dv=0 dx=0 dy=0 dh=0 dv=0
EndChar

StartChar: Z
Encoding: 90 90 43
Width: 1333
VWidth: 0
Flags: W
LayerCount: 2
Fore
SplineSet
0 633.333007812 m 1
 0 800 l 1
 333.333007812 800 l 1
 666.666992188 800 l 1
 666.666992188 466.666992188 l 1
 666.666992188 133.333007812 l 1
 833.333007812 133.333007812 l 1
 1000 133.333007812 l 1
 1000 -33.3330078125 l 1
 1000 -200 l 1
 666.666992188 -200 l 1
 333.333007812 -200 l 1
 333.333007812 133.333007812 l 1
 333.333007812 466.666992188 l 1
 166.666992188 466.666992188 l 1
 0 466.666992188 l 1
 0 633.333007812 l 1
EndSplineSet
PairPos2: "kern-lut" uni0009 dx=0 dy=0 dh=-333 dv=0 dx=0 dy=0 dh=0 dv=0
PairPos2: "kern-lut" uni000A dx=0 dy=0 dh=-333 dv=0 dx=0 dy=0 dh=0 dv=0
EndChar

StartChar: a
Encoding: 97 97 44
Width: 1333
VWidth: 0
Flags: W
LayerCount: 2
Fore
SplineSet
333.333007812 633.333007812 m 1
 333.333007812 800 l 1
 666.666992188 800 l 1
 1000 800 l 1
 1000 300 l 1
 1000 -200 l 1
 666.666992188 -200 l 1
 333.333007812 -200 l 1
 333.333007812 -33.3330078125 l 1
 333.333007812 133.333007812 l 1
 166.666992188 133.333007812 l 1
 0 133.333007812 l 1
 0 300 l 1
 0 466.666992188 l 1
 166.666992188 466.666992188 l 1
 333.333007812 466.666992188 l 1
 333.333007812 633.333007812 l 1
666.666992188 300 m 1
 666.666992188 466.666992188 l 1
 500 466.666992188 l 1
 333.333007812 466.666992188 l 1
 333.333007812 300 l 1
 333.333007812 133.333007812 l 1
 500 133.333007812 l 1
 666.666992188 133.333007812 l 1
 666.666992188 300 l 1
EndSplineSet
PairPos2: "kern-lut" uni0009 dx=0 dy=0 dh=-333 dv=0 dx=0 dy=0 dh=0 dv=0
PairPos2: "kern-lut" uni000A dx=0 dy=0 dh=-333 dv=0 dx=0 dy=0 dh=0 dv=0
EndChar

StartChar: b
Encoding: 98 98 45
Width: 1333
VWidth: 0
Flags: W
LayerCount: 2
Fore
SplineSet
0 300 m 1
 0 800 l 1
 166.666992188 800 l 1
 333.333007812 800 l 1
 333.333007812 633.333007812 l 1
 333.333007812 466.666992188 l 1
 500 466.666992188 l 1
 666.666992188 466.666992188 l 1
 666.666992188 133.333007812 l 1
 666.666992188 -200 l 1
 333.333007812 -200 l 1
 0 -200 l 1
 0 300 l 1
EndSplineSet
PairPos2: "kern-lut" uni0009 dx=0 dy=0 dh=-333 dv=0 dx=0 dy=0 dh=0 dv=0
PairPos2: "kern-lut" uni000A dx=0 dy=0 dh=-333 dv=0 dx=0 dy=0 dh=0 dv=0
EndChar

StartChar: c
Encoding: 99 99 46
Width: 1333
VWidth: 0
Flags: W
LayerCount: 2
Fore
SplineSet
333.333007812 633.333007812 m 1
 333.333007812 800 l 1
 500 800 l 1
 666.666992188 800 l 1
 666.666992188 633.333007812 l 1
 666.666992188 466.666992188 l 1
 500 466.666992188 l 1
 333.333007812 466.666992188 l 1
 333.333007812 300 l 1
 333.333007812 133.333007812 l 1
 500 133.333007812 l 1
 666.666992188 133.333007812 l 1
 666.666992188 -33.3330078125 l 1
 666.666992188 -200 l 1
 333.333007812 -200 l 1
 0 -200 l 1
 0 133.333007812 l 1
 0 466.666992188 l 1
 166.666992188 466.666992188 l 1
 333.333007812 466.666992188 l 1
 333.333007812 633.333007812 l 1
EndSplineSet
PairPos2: "kern-lut" uni0009 dx=0 dy=0 dh=-333 dv=0 dx=0 dy=0 dh=0 dv=0
PairPos2: "kern-lut" uni000A dx=0 dy=0 dh=-333 dv=0 dx=0 dy=0 dh=0 dv=0
EndChar

StartChar: d
Encoding: 100 100 47
Width: 1333
VWidth: 0
Flags: W
LayerCount: 2
Fore
SplineSet
333.333007812 633.333007812 m 1
 333.333007812 800 l 1
 500 800 l 1
 666.666992188 800 l 1
 666.666992188 300 l 1
 666.666992188 -200 l 1
 333.333007812 -200 l 1
 0 -200 l 1
 0 133.333007812 l 1
 0 466.666992188 l 1
 166.666992188 466.666992188 l 1
 333.333007812 466.666992188 l 1
 333.333007812 633.333007812 l 1
EndSplineSet
PairPos2: "kern-lut" uni0009 dx=0 dy=0 dh=-333 dv=0 dx=0 dy=0 dh=0 dv=0
PairPos2: "kern-lut" uni000A dx=0 dy=0 dh=-333 dv=0 dx=0 dy=0 dh=0 dv=0
EndChar

StartChar: e
Encoding: 101 101 48
Width: 1333
VWidth: 0
Flags: W
LayerCount: 2
Fore
SplineSet
0 300 m 1
 0 800 l 1
 333.333007812 800 l 1
 666.666992188 800 l 1
 666.666992188 466.666992188 l 1
 666.666992188 133.333007812 l 1
 833.333007812 133.333007812 l 1
 1000 133.333007812 l 1
 1000 -33.3330078125 l 1
 1000 -200 l 1
 500 -200 l 1
 0 -200 l 1
 0 300 l 1
EndSplineSet
PairPos2: "kern-lut" uni0009 dx=0 dy=0 dh=-333 dv=0 dx=0 dy=0 dh=0 dv=0
PairPos2: "kern-lut" uni000A dx=0 dy=0 dh=-333 dv=0 dx=0 dy=0 dh=0 dv=0
EndChar

StartChar: f
Encoding: 102 102 49
Width: 1333
VWidth: 0
Flags: W
LayerCount: 2
Fore
SplineSet
333.333007812 633.333007812 m 1
 333.333007812 800 l 1
 666.666992188 800 l 1
 1000 800 l 1
 1000 633.333007812 l 1
 1000 466.666992188 l 1
 833.333007812 466.666992188 l 1
 666.666992188 466.666992188 l 1
 666.666992188 300 l 1
 666.666992188 133.333007812 l 1
 500 133.333007812 l 1
 333.333007812 133.333007812 l 1
 333.333007812 -33.3330078125 l 1
 333.333007812 -200 l 1
 166.666992188 -200 l 1
 0 -200 l 1
 0 133.333007812 l 1
 0 466.666992188 l 1
 166.666992188 466.666992188 l 1
 333.333007812 466.666992188 l 1
 333.333007812 633.333007812 l 1
EndSplineSet
PairPos2: "kern-lut" uni0009 dx=0 dy=0 dh=-333 dv=0 dx=0 dy=0 dh=0 dv=0
PairPos2: "kern-lut" uni000A dx=0 dy=0 dh=-333 dv=0 dx=0 dy=0 dh=0 dv=0
EndChar

StartChar: g
Encoding: 103 103 50
Width: 1333
VWidth: 0
Flags: W
LayerCount: 2
Fore
SplineSet
0 466.666992188 m 1
 0 800 l 1
 333.333007812 800 l 1
 666.666992188 800 l 1
 666.666992188 300 l 1
 666.666992188 -200 l 1
 500 -200 l 1
 333.333007812 -200 l 1
 333.333007812 -33.3330078125 l 1
 333.333007812 133.333007812 l 1
 166.666992188 133.333007812 l 1
 0 133.333007812 l 1
 0 466.666992188 l 1
EndSplineSet
PairPos2: "kern-lut" uni0009 dx=0 dy=0 dh=-333 dv=0 dx=0 dy=0 dh=0 dv=0
PairPos2: "kern-lut" uni000A dx=0 dy=0 dh=-333 dv=0 dx=0 dy=0 dh=0 dv=0
EndChar

StartChar: h
Encoding: 104 104 51
Width: 1333
VWidth: 0
Flags: W
LayerCount: 2
Fore
SplineSet
0 300 m 1
 0 800 l 1
 166.666992188 800 l 1
 333.333007812 800 l 1
 333.333007812 633.333007812 l 1
 333.333007812 466.666992188 l 1
 666.666992188 466.666992188 l 1
 1000 466.666992188 l 1
 1000 133.333007812 l 1
 1000 -200 l 1
 833.333007812 -200 l 1
 666.666992188 -200 l 1
 666.666992188 -33.3330078125 l 1
 666.666992188 133.333007812 l 1
 500 133.333007812 l 1
 333.333007812 133.333007812 l 1
 333.333007812 -33.3330078125 l 1
 333.333007812 -200 l 1
 166.666992188 -200 l 1
 0 -200 l 1
 0 300 l 1
EndSplineSet
PairPos2: "kern-lut" uni0009 dx=0 dy=0 dh=-333 dv=0 dx=0 dy=0 dh=0 dv=0
PairPos2: "kern-lut" uni000A dx=0 dy=0 dh=-333 dv=0 dx=0 dy=0 dh=0 dv=0
EndChar

StartChar: i
Encoding: 105 105 52
Width: 1333
VWidth: 0
Flags: W
LayerCount: 2
Fore
SplineSet
333.333007812 133.333007812 m 1
 333.333007812 466.666992188 l 1
 500 466.666992188 l 1
 666.666992188 466.666992188 l 1
 666.666992188 133.333007812 l 1
 666.666992188 -200 l 1
 500 -200 l 1
 333.333007812 -200 l 1
 333.333007812 133.333007812 l 1
EndSplineSet
PairPos2: "kern-lut" uni0009 dx=0 dy=0 dh=-333 dv=0 dx=0 dy=0 dh=0 dv=0
PairPos2: "kern-lut" uni000A dx=0 dy=0 dh=-333 dv=0 dx=0 dy=0 dh=0 dv=0
EndChar

StartChar: j
Encoding: 106 106 53
Width: 1333
VWidth: 0
Flags: W
LayerCount: 2
Fore
SplineSet
666.666992188 466.666992188 m 1
 666.666992188 800 l 1
 833.333007812 800 l 1
 1000 800 l 1
 1000 300 l 1
 1000 -200 l 1
 666.666992188 -200 l 1
 333.333007812 -200 l 1
 333.333007812 -33.3330078125 l 1
 333.333007812 133.333007812 l 1
 166.666992188 133.333007812 l 1
 0 133.333007812 l 1
 0 300 l 1
 0 466.666992188 l 1
 166.666992188 466.666992188 l 1
 333.333007812 466.666992188 l 1
 333.333007812 300 l 1
 333.333007812 133.333007812 l 1
 500 133.333007812 l 1
 666.666992188 133.333007812 l 1
 666.666992188 466.666992188 l 1
EndSplineSet
PairPos2: "kern-lut" uni0009 dx=0 dy=0 dh=-333 dv=0 dx=0 dy=0 dh=0 dv=0
PairPos2: "kern-lut" uni000A dx=0 dy=0 dh=-333 dv=0 dx=0 dy=0 dh=0 dv=0
EndChar

StartChar: k
Encoding: 107 107 54
Width: 1333
VWidth: 0
Flags: W
LayerCount: 2
Fore
SplineSet
0 300 m 1
 0 800 l 1
 166.666992188 800 l 1
 333.333007812 800 l 1
 333.333007812 633.333007812 l 1
 333.333007812 466.666992188 l 1
 500 466.666992188 l 1
 666.666992188 466.666992188 l 1
 666.666992188 633.333007812 l 1
 666.666992188 800 l 1
 833.333007812 800 l 1
 1000 800 l 1
 1000 633.333007812 l 1
 1000 466.666992188 l 1
 833.333007812 466.666992188 l 1
 666.666992188 466.666992188 l 1
 666.666992188 300 l 1
 666.666992188 133.333007812 l 1
 833.333007812 133.333007812 l 1
 1000 133.333007812 l 1
 1000 -33.3330078125 l 1
 1000 -200 l 1
 833.333007812 -200 l 1
 666.666992188 -200 l 1
 666.666992188 -33.3330078125 l 1
 666.666992188 133.333007812 l 1
 500 133.333007812 l 1
 333.333007812 133.333007812 l 1
 333.333007812 -33.3330078125 l 1
 333.333007812 -200 l 1
 166.666992188 -200 l 1
 0 -200 l 1
 0 300 l 1
EndSplineSet
PairPos2: "kern-lut" uni0009 dx=0 dy=0 dh=-333 dv=0 dx=0 dy=0 dh=0 dv=0
PairPos2: "kern-lut" uni000A dx=0 dy=0 dh=-333 dv=0 dx=0 dy=0 dh=0 dv=0
EndChar

StartChar: l
Encoding: 108 108 55
Width: 1333
VWidth: 0
Flags: W
LayerCount: 2
Fore
SplineSet
0 300 m 1
 0 800 l 1
 166.666992188 800 l 1
 333.333007812 800 l 1
 333.333007812 466.666992188 l 1
 333.333007812 133.333007812 l 1
 500 133.333007812 l 1
 666.666992188 133.333007812 l 1
 666.666992188 -33.3330078125 l 1
 666.666992188 -200 l 1
 333.333007812 -200 l 1
 0 -200 l 1
 0 300 l 1
EndSplineSet
PairPos2: "kern-lut" uni0009 dx=0 dy=0 dh=-333 dv=0 dx=0 dy=0 dh=0 dv=0
PairPos2: "kern-lut" uni000A dx=0 dy=0 dh=-333 dv=0 dx=0 dy=0 dh=0 dv=0
EndChar

StartChar: m
Encoding: 109 109 56
Width: 1333
VWidth: 0
Flags: W
LayerCount: 2
Fore
SplineSet
0 300 m 1
 0 800 l 1
 166.666992188 800 l 1
 333.333007812 800 l 1
 333.333007812 633.333007812 l 1
 333.333007812 466.666992188 l 1
 666.666992188 466.666992188 l 1
 1000 466.666992188 l 1
 1000 133.333007812 l 1
 1000 -200 l 1
 500 -200 l 1
 0 -200 l 1
 0 300 l 1
EndSplineSet
PairPos2: "kern-lut" uni0009 dx=0 dy=0 dh=-333 dv=0 dx=0 dy=0 dh=0 dv=0
PairPos2: "kern-lut" uni000A dx=0 dy=0 dh=-333 dv=0 dx=0 dy=0 dh=0 dv=0
EndChar

StartChar: n
Encoding: 110 110 57
Width: 1333
VWidth: 0
Flags: W
LayerCount: 2
Fore
SplineSet
0 133.333007812 m 1
 0 466.666992188 l 1
 333.333007812 466.666992188 l 1
 666.666992188 466.666992188 l 1
 666.666992188 300 l 1
 666.666992188 133.333007812 l 1
 833.333007812 133.333007812 l 1
 1000 133.333007812 l 1
 1000 -33.3330078125 l 1
 1000 -200 l 1
 833.333007812 -200 l 1
 666.666992188 -200 l 1
 666.666992188 -33.3330078125 l 1
 666.666992188 133.333007812 l 1
 500 133.333007812 l 1
 333.333007812 133.333007812 l 1
 333.333007812 -33.3330078125 l 1
 333.333007812 -200 l 1
 166.666992188 -200 l 1
 0 -200 l 1
 0 133.333007812 l 1
EndSplineSet
PairPos2: "kern-lut" uni0009 dx=0 dy=0 dh=-333 dv=0 dx=0 dy=0 dh=0 dv=0
PairPos2: "kern-lut" uni000A dx=0 dy=0 dh=-333 dv=0 dx=0 dy=0 dh=0 dv=0
EndChar

StartChar: o
Encoding: 111 111 58
Width: 1333
VWidth: 0
Flags: W
LayerCount: 2
Fore
SplineSet
333.333007812 633.333007812 m 1
 333.333007812 800 l 1
 500 800 l 1
 666.666992188 800 l 1
 666.666992188 633.333007812 l 1
 666.666992188 466.666992188 l 1
 833.333007812 466.666992188 l 1
 1000 466.666992188 l 1
 1000 300 l 1
 1000 133.333007812 l 1
 833.333007812 133.333007812 l 1
 666.666992188 133.333007812 l 1
 666.666992188 -33.3330078125 l 1
 666.666992188 -200 l 1
 500 -200 l 1
 333.333007812 -200 l 1
 333.333007812 -33.3330078125 l 1
 333.333007812 133.333007812 l 1
 166.666992188 133.333007812 l 1
 0 133.333007812 l 1
 0 300 l 1
 0 466.666992188 l 1
 166.666992188 466.666992188 l 1
 333.333007812 466.666992188 l 1
 333.333007812 633.333007812 l 1
666.666992188 300 m 1
 666.666992188 466.666992188 l 1
 500 466.666992188 l 1
 333.333007812 466.666992188 l 1
 333.333007812 300 l 1
 333.333007812 133.333007812 l 1
 500 133.333007812 l 1
 666.666992188 133.333007812 l 1
 666.666992188 300 l 1
EndSplineSet
PairPos2: "kern-lut" uni0009 dx=0 dy=0 dh=-333 dv=0 dx=0 dy=0 dh=0 dv=0
PairPos2: "kern-lut" uni000A dx=0 dy=0 dh=-333 dv=0 dx=0 dy=0 dh=0 dv=0
EndChar

StartChar: p
Encoding: 112 112 59
Width: 1333
VWidth: 0
Flags: W
LayerCount: 2
Fore
SplineSet
0 300 m 1
 0 800 l 1
 333.333007812 800 l 1
 666.666992188 800 l 1
 666.666992188 466.666992188 l 1
 666.666992188 133.333007812 l 1
 500 133.333007812 l 1
 333.333007812 133.333007812 l 1
 333.333007812 -33.3330078125 l 1
 333.333007812 -200 l 1
 166.666992188 -200 l 1
 0 -200 l 1
 0 300 l 1
EndSplineSet
PairPos2: "kern-lut" uni0009 dx=0 dy=0 dh=-333 dv=0 dx=0 dy=0 dh=0 dv=0
PairPos2: "kern-lut" uni000A dx=0 dy=0 dh=-333 dv=0 dx=0 dy=0 dh=0 dv=0
EndChar

StartChar: q
Encoding: 113 113 60
Width: 1333
VWidth: 0
Flags: W
LayerCount: 2
Fore
SplineSet
0 466.666992188 m 1
 0 800 l 1
 333.333007812 800 l 1
 666.666992188 800 l 1
 666.666992188 466.666992188 l 1
 666.666992188 133.333007812 l 1
 833.333007812 133.333007812 l 1
 1000 133.333007812 l 1
 1000 -33.3330078125 l 1
 1000 -200 l 1
 666.666992188 -200 l 1
 333.333007812 -200 l 1
 333.333007812 -33.3330078125 l 1
 333.333007812 133.333007812 l 1
 166.666992188 133.333007812 l 1
 0 133.333007812 l 1
 0 466.666992188 l 1
EndSplineSet
PairPos2: "kern-lut" uni0009 dx=0 dy=0 dh=-333 dv=0 dx=0 dy=0 dh=0 dv=0
PairPos2: "kern-lut" uni000A dx=0 dy=0 dh=-333 dv=0 dx=0 dy=0 dh=0 dv=0
EndChar

StartChar: r
Encoding: 114 114 61
Width: 1333
VWidth: 0
Flags: W
LayerCount: 2
Fore
SplineSet
0 300 m 1
 0 800 l 1
 500 800 l 1
 1000 800 l 1
 1000 633.333007812 l 1
 1000 466.666992188 l 1
 666.666992188 466.666992188 l 1
 333.333007812 466.666992188 l 1
 333.333007812 133.333007812 l 1
 333.333007812 -200 l 1
 166.666992188 -200 l 1
 0 -200 l 1
 0 300 l 1
EndSplineSet
PairPos2: "kern-lut" uni0009 dx=0 dy=0 dh=-333 dv=0 dx=0 dy=0 dh=0 dv=0
PairPos2: "kern-lut" uni000A dx=0 dy=0 dh=-333 dv=0 dx=0 dy=0 dh=0 dv=0
EndChar

StartChar: s
Encoding: 115 115 62
Width: 1333
VWidth: 0
Flags: W
LayerCount: 2
Fore
SplineSet
333.333007812 300 m 1
 333.333007812 466.666992188 l 1
 666.666992188 466.666992188 l 1
 1000 466.666992188 l 1
 1000 300 l 1
 1000 133.333007812 l 1
 833.333007812 133.333007812 l 1
 666.666992188 133.333007812 l 1
 666.666992188 -33.3330078125 l 1
 666.666992188 -200 l 1
 333.333007812 -200 l 1
 0 -200 l 1
 0 -33.3330078125 l 1
 0 133.333007812 l 1
 166.666992188 133.333007812 l 1
 333.333007812 133.333007812 l 1
 333.333007812 300 l 1
EndSplineSet
PairPos2: "kern-lut" uni0009 dx=0 dy=0 dh=-333 dv=0 dx=0 dy=0 dh=0 dv=0
PairPos2: "kern-lut" uni000A dx=0 dy=0 dh=-333 dv=0 dx=0 dy=0 dh=0 dv=0
EndChar

StartChar: t
Encoding: 116 116 63
Width: 1333
VWidth: 0
Flags: W
LayerCount: 2
Fore
SplineSet
0 300 m 1
 0 466.666992188 l 1
 500 466.666992188 l 1
 1000 466.666992188 l 1
 1000 300 l 1
 1000 133.333007812 l 1
 833.333007812 133.333007812 l 1
 666.666992188 133.333007812 l 1
 666.666992188 -33.3330078125 l 1
 666.666992188 -200 l 1
 500 -200 l 1
 333.333007812 -200 l 1
 333.333007812 -33.3330078125 l 1
 333.333007812 133.333007812 l 1
 166.666992188 133.333007812 l 1
 0 133.333007812 l 1
 0 300 l 1
EndSplineSet
PairPos2: "kern-lut" uni0009 dx=0 dy=0 dh=-333 dv=0 dx=0 dy=0 dh=0 dv=0
PairPos2: "kern-lut" uni000A dx=0 dy=0 dh=-333 dv=0 dx=0 dy=0 dh=0 dv=0
EndChar

StartChar: u
Encoding: 117 117 64
Width: 1333
VWidth: 0
Flags: W
LayerCount: 2
Fore
SplineSet
0 133.333007812 m 1
 0 466.666992188 l 1
 166.666992188 466.666992188 l 1
 333.333007812 466.666992188 l 1
 333.333007812 300 l 1
 333.333007812 133.333007812 l 1
 500 133.333007812 l 1
 666.666992188 133.333007812 l 1
 666.666992188 300 l 1
 666.666992188 466.666992188 l 1
 833.333007812 466.666992188 l 1
 1000 466.666992188 l 1
 1000 133.333007812 l 1
 1000 -200 l 1
 500 -200 l 1
 0 -200 l 1
 0 133.333007812 l 1
EndSplineSet
PairPos2: "kern-lut" uni0009 dx=0 dy=0 dh=-333 dv=0 dx=0 dy=0 dh=0 dv=0
PairPos2: "kern-lut" uni000A dx=0 dy=0 dh=-333 dv=0 dx=0 dy=0 dh=0 dv=0
EndChar

StartChar: v
Encoding: 118 118 65
Width: 1333
VWidth: 0
Flags: W
LayerCount: 2
Fore
SplineSet
0 300 m 1
 0 466.666992188 l 1
 166.666992188 466.666992188 l 1
 333.333007812 466.666992188 l 1
 333.333007812 300 l 1
 333.333007812 133.333007812 l 1
 500 133.333007812 l 1
 666.666992188 133.333007812 l 1
 666.666992188 300 l 1
 666.666992188 466.666992188 l 1
 833.333007812 466.666992188 l 1
 1000 466.666992188 l 1
 1000 300 l 1
 1000 133.333007812 l 1
 833.333007812 133.333007812 l 1
 666.666992188 133.333007812 l 1
 666.666992188 -33.3330078125 l 1
 666.666992188 -200 l 1
 500 -200 l 1
 333.333007812 -200 l 1
 333.333007812 -33.3330078125 l 1
 333.333007812 133.333007812 l 1
 166.666992188 133.333007812 l 1
 0 133.333007812 l 1
 0 300 l 1
EndSplineSet
PairPos2: "kern-lut" uni0009 dx=0 dy=0 dh=-333 dv=0 dx=0 dy=0 dh=0 dv=0
PairPos2: "kern-lut" uni000A dx=0 dy=0 dh=-333 dv=0 dx=0 dy=0 dh=0 dv=0
EndChar

StartChar: w
Encoding: 119 119 66
Width: 1333
VWidth: 0
Flags: W
LayerCount: 2
Fore
SplineSet
0 300 m 1
 0 800 l 1
 166.666992188 800 l 1
 333.333007812 800 l 1
 333.333007812 633.333007812 l 1
 333.333007812 466.666992188 l 1
 500 466.666992188 l 1
 666.666992188 466.666992188 l 1
 666.666992188 633.333007812 l 1
 666.666992188 800 l 1
 833.333007812 800 l 1
 1000 800 l 1
 1000 300 l 1
 1000 -200 l 1
 500 -200 l 1
 0 -200 l 1
 0 300 l 1
EndSplineSet
PairPos2: "kern-lut" uni0009 dx=0 dy=0 dh=-333 dv=0 dx=0 dy=0 dh=0 dv=0
PairPos2: "kern-lut" uni000A dx=0 dy=0 dh=-333 dv=0 dx=0 dy=0 dh=0 dv=0
EndChar

StartChar: x
Encoding: 120 120 67
Width: 1333
VWidth: 0
Flags: W
LayerCount: 2
Fore
SplineSet
0 633.333007812 m 1
 0 800 l 1
 166.666992188 800 l 1
 333.333007812 800 l 1
 333.333007812 633.333007812 l 1
 333.333007812 466.666992188 l 1
 500 466.666992188 l 1
 666.666992188 466.666992188 l 1
 666.666992188 633.333007812 l 1
 666.666992188 800 l 1
 833.333007812 800 l 1
 1000 800 l 1
 1000 633.333007812 l 1
 1000 466.666992188 l 1
 833.333007812 466.666992188 l 1
 666.666992188 466.666992188 l 1
 666.666992188 300 l 1
 666.666992188 133.333007812 l 1
 833.333007812 133.333007812 l 1
 1000 133.333007812 l 1
 1000 -33.3330078125 l 1
 1000 -200 l 1
 833.333007812 -200 l 1
 666.666992188 -200 l 1
 666.666992188 -33.3330078125 l 1
 666.666992188 133.333007812 l 1
 500 133.333007812 l 1
 333.333007812 133.333007812 l 1
 333.333007812 -33.3330078125 l 1
 333.333007812 -200 l 1
 166.666992188 -200 l 1
 0 -200 l 1
 0 -33.3330078125 l 1
 0 133.333007812 l 1
 166.666992188 133.333007812 l 1
 333.333007812 133.333007812 l 1
 333.333007812 300 l 1
 333.333007812 466.666992188 l 1
 166.666992188 466.666992188 l 1
 0 466.666992188 l 1
 0 633.333007812 l 1
EndSplineSet
PairPos2: "kern-lut" uni0009 dx=0 dy=0 dh=-333 dv=0 dx=0 dy=0 dh=0 dv=0
PairPos2: "kern-lut" uni000A dx=0 dy=0 dh=-333 dv=0 dx=0 dy=0 dh=0 dv=0
EndChar

StartChar: y
Encoding: 121 121 68
Width: 1333
VWidth: 0
Flags: W
LayerCount: 2
Fore
SplineSet
0 633.333007812 m 1
 0 800 l 1
 166.666992188 800 l 1
 333.333007812 800 l 1
 333.333007812 633.333007812 l 1
 333.333007812 466.666992188 l 1
 500 466.666992188 l 1
 666.666992188 466.666992188 l 1
 666.666992188 633.333007812 l 1
 666.666992188 800 l 1
 833.333007812 800 l 1
 1000 800 l 1
 1000 633.333007812 l 1
 1000 466.666992188 l 1
 833.333007812 466.666992188 l 1
 666.666992188 466.666992188 l 1
 666.666992188 133.333007812 l 1
 666.666992188 -200 l 1
 500 -200 l 1
 333.333007812 -200 l 1
 333.333007812 133.333007812 l 1
 333.333007812 466.666992188 l 1
 166.666992188 466.666992188 l 1
 0 466.666992188 l 1
 0 633.333007812 l 1
EndSplineSet
PairPos2: "kern-lut" uni0009 dx=0 dy=0 dh=-333 dv=0 dx=0 dy=0 dh=0 dv=0
PairPos2: "kern-lut" uni000A dx=0 dy=0 dh=-333 dv=0 dx=0 dy=0 dh=0 dv=0
EndChar

StartChar: z
Encoding: 122 122 69
Width: 1333
VWidth: 0
Flags: W
LayerCount: 2
Fore
SplineSet
0 300 m 1
 0 466.666992188 l 1
 333.333007812 466.666992188 l 1
 666.666992188 466.666992188 l 1
 666.666992188 300 l 1
 666.666992188 133.333007812 l 1
 833.333007812 133.333007812 l 1
 1000 133.333007812 l 1
 1000 -33.3330078125 l 1
 1000 -200 l 1
 666.666992188 -200 l 1
 333.333007812 -200 l 1
 333.333007812 -33.3330078125 l 1
 333.333007812 133.333007812 l 1
 166.666992188 133.333007812 l 1
 0 133.333007812 l 1
 0 300 l 1
EndSplineSet
PairPos2: "kern-lut" uni0009 dx=0 dy=0 dh=-333 dv=0 dx=0 dy=0 dh=0 dv=0
PairPos2: "kern-lut" uni000A dx=0 dy=0 dh=-333 dv=0 dx=0 dy=0 dh=0 dv=0
EndChar
